# xmcd
#
# Track frame offsets: 
#        150
#        24328
#        42948
#        61932
#        86283
#        110682
#        136673
#        154588
#        176694
#        202212
#
# Disc length: 3010 seconds
#
# Revision: 2
# Processed by: cddbd v1.5.2PL0 Copyright (c) Steve Scherf et al.
# Submitted via: ExactAudioCopyFreeDBPlugin 1.0
#
DISCID=7c0bc00a
DTITLE=Evan Christopher - Django à la Créole
DYEAR=2008
DGENRE=Jazz
TTITLE0=Douce ambiance
TTITLE1=Farewell Blues
TTITLE2=Dinette
TTITLE3=I know that you know
TTITLE4=Manoir de mes rêves
TTITLE5=Low Cotton
TTITLE6=Nuages
TTITLE7=Mélodie au crépuscule
TTITLE8=Insensiblement
TTITLE9=Tears - Djangology
EXTD=YEAR: 2008
EXTT0=
EXTT1=
EXTT2=
EXTT3=
EXTT4=
EXTT5=
EXTT6=
EXTT7=
EXTT8=
EXTT9=
PLAYORDER=
